<svg xmlns="http://www.w3.org/2000/svg" viewBox="0 0 240 160" width="480" height="320"><defs><pattern id="g" width="4" height="4" patternUnits="userSpaceOnUse"><rect width="4" height="4" fill="#0e1013"/><circle cx="2" cy="2" r=".9" fill="#3a414a"/></pattern><linearGradient id="sh" x1="0" y1="0" x2="0" y2="1"><stop offset="0" stop-color="#fff" stop-opacity=".14"/><stop offset="1" stop-color="#fff" stop-opacity="0"/></linearGradient></defs><ellipse cx="120" cy="122" rx="66" ry="6" fill="#000" opacity=".16"/><rect x="58" y="60" width="124" height="56" rx="6" fill="#1b1e22" stroke="#4a525c"/><rect x="58" y="60" width="124" height="18" rx="6" fill="url(#sh)"/><circle cx="80" cy="96" r="8" fill="#0a0b0d" stroke="#8a939d" stroke-width="1"/><circle cx="78" cy="94.5" r=".9" fill="#c9ced4"/><circle cx="82" cy="94.5" r=".9" fill="#c9ced4"/><circle cx="80" cy="98" r=".9" fill="#c9ced4"/><circle cx="106" cy="96" r="8" fill="#0a0b0d" stroke="#8a939d" stroke-width="1"/><circle cx="104" cy="94.5" r=".9" fill="#c9ced4"/><circle cx="108" cy="94.5" r=".9" fill="#c9ced4"/><circle cx="106" cy="98" r=".9" fill="#c9ced4"/><circle cx="132" cy="96" r="8" fill="#0a0b0d" stroke="#8a939d" stroke-width="1"/><circle cx="130" cy="94.5" r=".9" fill="#c9ced4"/><circle cx="134" cy="94.5" r=".9" fill="#c9ced4"/><circle cx="132" cy="98" r=".9" fill="#c9ced4"/><circle cx="158" cy="96" r="8" fill="#0a0b0d" stroke="#8a939d" stroke-width="1"/><circle cx="156" cy="94.5" r=".9" fill="#c9ced4"/><circle cx="160" cy="94.5" r=".9" fill="#c9ced4"/><circle cx="158" cy="98" r=".9" fill="#c9ced4"/><text x="66" y="72" font-family="Segoe UI,Arial" font-weight="700" font-size="7" fill="#c9ced4">SHURE  ANI4</text></svg>