<svg xmlns="http://www.w3.org/2000/svg" viewBox="0 0 240 160" width="480" height="320"><defs><pattern id="g" width="4" height="4" patternUnits="userSpaceOnUse"><rect width="4" height="4" fill="#0e1013"/><circle cx="2" cy="2" r=".9" fill="#3a414a"/></pattern><linearGradient id="sh" x1="0" y1="0" x2="0" y2="1"><stop offset="0" stop-color="#fff" stop-opacity=".14"/><stop offset="1" stop-color="#fff" stop-opacity="0"/></linearGradient></defs><ellipse cx="120" cy="112" rx="44" ry="6" fill="#000" opacity=".16"/><rect x="78" y="66" width="84" height="40" rx="9" fill="#0d0e10" stroke="#3a414a"/><rect x="78" y="66" width="84" height="16" rx="9" fill="url(#sh)"/><path d="M115 82 c0-4 3-6 5-6 c-1 2 0 4 2 4 c-1 2-3 2-3 0 M113 88 c2-3 9-3 10 0 c-2 3-8 3-10 0" fill="#9aa4ae"/></svg>