<svg xmlns="http://www.w3.org/2000/svg" viewBox="0 0 240 160" width="480" height="320"><defs><pattern id="g" width="4" height="4" patternUnits="userSpaceOnUse"><rect width="4" height="4" fill="#0e1013"/><circle cx="2" cy="2" r=".9" fill="#3a414a"/></pattern><linearGradient id="sh" x1="0" y1="0" x2="0" y2="1"><stop offset="0" stop-color="#fff" stop-opacity=".14"/><stop offset="1" stop-color="#fff" stop-opacity="0"/></linearGradient></defs><ellipse cx="120" cy="140" rx="92" ry="6" fill="#000" opacity=".16"/><path d="M20 120 l18-70 h164 l18 70z" fill="#1b1e22" stroke="#4a525c"/><rect x="54" y="58" width="72" height="40" rx="2" fill="#0a2238" stroke="#3a414a"/><rect x="58" y="62" width="64" height="32" fill="#173b5e"/><rect x="136" y="66" width="2" height="40" fill="#0a0b0d"/><rect x="132" y="74" width="10" height="6" rx="1" fill="#c9ced4"/><rect x="144" y="66" width="2" height="40" fill="#0a0b0d"/><rect x="140" y="81" width="10" height="6" rx="1" fill="#c9ced4"/><rect x="152" y="66" width="2" height="40" fill="#0a0b0d"/><rect x="148" y="88" width="10" height="6" rx="1" fill="#c9ced4"/><rect x="160" y="66" width="2" height="40" fill="#0a0b0d"/><rect x="156" y="95" width="10" height="6" rx="1" fill="#c9ced4"/><rect x="168" y="66" width="2" height="40" fill="#0a0b0d"/><rect x="164" y="80" width="10" height="6" rx="1" fill="#c9ced4"/><rect x="176" y="66" width="2" height="40" fill="#0a0b0d"/><rect x="172" y="87" width="10" height="6" rx="1" fill="#c9ced4"/><rect x="184" y="66" width="2" height="40" fill="#0a0b0d"/><rect x="180" y="94" width="10" height="6" rx="1" fill="#c9ced4"/><rect x="192" y="66" width="2" height="40" fill="#0a0b0d"/><rect x="188" y="79" width="10" height="6" rx="1" fill="#c9ced4"/><circle cx="60" cy="108" r="3" fill="#30353c" stroke="#5a636d"/><circle cx="69" cy="108" r="3" fill="#30353c" stroke="#5a636d"/><circle cx="78" cy="108" r="3" fill="#30353c" stroke="#5a636d"/><circle cx="87" cy="108" r="3" fill="#30353c" stroke="#5a636d"/><circle cx="96" cy="108" r="3" fill="#30353c" stroke="#5a636d"/><circle cx="105" cy="108" r="3" fill="#30353c" stroke="#5a636d"/><circle cx="114" cy="108" r="3" fill="#30353c" stroke="#5a636d"/><circle cx="123" cy="108" r="3" fill="#30353c" stroke="#5a636d"/></svg>