<svg xmlns="http://www.w3.org/2000/svg" viewBox="20 0 200 166" width="400" height="332"><defs><linearGradient id="cab" x1="0" y1="0" x2="1" y2="0"><stop offset="0" stop-color="#2b3036"/><stop offset=".75" stop-color="#1e2227"/><stop offset="1" stop-color="#15181b"/></linearGradient><linearGradient id="frm" x1="0" y1="0" x2="0" y2="1"><stop offset="0" stop-color="#5d6670"/><stop offset="1" stop-color="#2f353c"/></linearGradient><pattern id="g" width="4" height="4" patternUnits="userSpaceOnUse"><rect width="4" height="4" fill="#0e1013"/><circle cx="2" cy="2" r=".9" fill="#3a414a"/></pattern><linearGradient id="sh" x1="0" y1="0" x2="0" y2="1"><stop offset="0" stop-color="#fff" stop-opacity=".14"/><stop offset="1" stop-color="#fff" stop-opacity="0"/></linearGradient></defs><ellipse cx="112" cy="156" rx="60" ry="5" fill="#000" opacity=".16"/><line x1="112" y1="4" x2="112" y2="20" stroke="#8a939d" stroke-width="1.6"/><path d="M106 20 h12 l-2 5 h-8z" fill="#8a939d"/><rect x="56" y="24" width="102" height="7" rx="2" fill="url(#frm)" stroke="#6f7881" stroke-width=".8"/><circle cx="64" cy="27.5" r="1.4" fill="#1b1e22"/><circle cx="78" cy="27.5" r="1.4" fill="#1b1e22"/><circle cx="92" cy="27.5" r="1.4" fill="#1b1e22"/><circle cx="106" cy="27.5" r="1.4" fill="#1b1e22"/><circle cx="120" cy="27.5" r="1.4" fill="#1b1e22"/><circle cx="134" cy="27.5" r="1.4" fill="#1b1e22"/><circle cx="148" cy="27.5" r="1.4" fill="#1b1e22"/><rect x="145" y="30" width="5" height="7" fill="#6f7881"/><rect x="64" y="30" width="5" height="7" fill="#6f7881"/><polygon points="150.0,62.0 64.0,57.5 63.9,64.1 150.0,62.6" fill="#0e1013" opacity=".55"/><line x1="69.0" y1="54.5" x2="68.9" y2="67.1" stroke="#5d6670" stroke-width="3" stroke-linecap="round"/><polygon points="149.0,90.6 63.2,83.1 63.0,86.7 149.0,91.2" fill="#0e1013" opacity=".55"/><line x1="68.2" y1="80.1" x2="68.0" y2="89.7" stroke="#5d6670" stroke-width="3" stroke-linecap="round"/><polygon points="146.1,119.0 61.0,105.6 61.0,106.2 146.1,119.6" fill="#0e1013" opacity=".55"/><line x1="66.0" y1="102.6" x2="66.0" y2="109.2" stroke="#5d6670" stroke-width="3" stroke-linecap="round"/><polygon points="150.0,34.0 150.0,62.0 64.0,57.5 64.0,38.5" fill="url(#cab)" stroke="#59616b" stroke-width="1" stroke-linejoin="round"/><polygon points="143.0,36.0 148.5,36.0 148.5,60.0 143.0,60.0" fill="url(#g)" stroke="#0b0c0e" stroke-width=".6"/><line x1="136.0" y1="37.0" x2="136.0" y2="59.0" stroke="#4a525c" stroke-width="3" stroke-linecap="round"/><line x1="70.0" y1="41.5" x2="70.0" y2="54.5" stroke="#4a525c" stroke-width="3" stroke-linecap="round"/><line x1="92.0" y1="48.0" x2="112.0" y2="48.0" stroke="#121417" stroke-width="4" stroke-linecap="round"/><text x="102.0" y="57.0" transform="rotate(0 102.0 57.0)" text-anchor="middle" font-family="Segoe UI,Arial" font-weight="700" font-size="5.5" fill="#6f7881" letter-spacing="1">Q-SYS</text><circle cx="150.0" cy="34.0" r="2" fill="#9aa4ae" stroke="#2b3036" stroke-width=".6"/><polygon points="150.0,62.6 149.0,90.6 63.2,83.1 63.9,64.1" fill="url(#cab)" stroke="#59616b" stroke-width="1" stroke-linejoin="round"/><polygon points="142.9,64.4 148.4,64.5 147.6,88.5 142.1,88.3" fill="url(#g)" stroke="#0b0c0e" stroke-width=".6"/><line x1="135.9" y1="65.1" x2="135.1" y2="87.1" stroke="#4a525c" stroke-width="3" stroke-linecap="round"/><line x1="69.8" y1="67.3" x2="69.3" y2="80.3" stroke="#4a525c" stroke-width="3" stroke-linecap="round"/><line x1="91.5" y1="74.6" x2="111.5" y2="75.3" stroke="#121417" stroke-width="4" stroke-linecap="round"/><text x="101.2" y="83.9" transform="rotate(2 101.2 83.9)" text-anchor="middle" font-family="Segoe UI,Arial" font-weight="700" font-size="5.5" fill="#6f7881" letter-spacing="1">Q-SYS</text><circle cx="150.0" cy="62.6" r="2" fill="#9aa4ae" stroke="#2b3036" stroke-width=".6"/><polygon points="149.0,91.2 146.1,119.0 61.0,105.6 63.0,86.7" fill="url(#cab)" stroke="#59616b" stroke-width="1" stroke-linejoin="round"/><polygon points="141.9,92.4 147.3,93.0 144.8,116.9 139.3,116.3" fill="url(#g)" stroke="#0b0c0e" stroke-width=".6"/><line x1="134.8" y1="92.7" x2="132.5" y2="114.6" stroke="#4a525c" stroke-width="3" stroke-linecap="round"/><line x1="68.7" y1="90.3" x2="67.3" y2="103.2" stroke="#4a525c" stroke-width="3" stroke-linecap="round"/><line x1="89.9" y1="99.0" x2="109.8" y2="101.1" stroke="#121417" stroke-width="4" stroke-linecap="round"/><text x="98.9" y="109.0" transform="rotate(6 98.9 109.0)" text-anchor="middle" font-family="Segoe UI,Arial" font-weight="700" font-size="5.5" fill="#6f7881" letter-spacing="1">Q-SYS</text><circle cx="149.0" cy="91.2" r="2" fill="#9aa4ae" stroke="#2b3036" stroke-width=".6"/><polygon points="146.1,119.6 140.3,147.0 57.1,124.7 61.0,106.2" fill="url(#cab)" stroke="#59616b" stroke-width="1" stroke-linejoin="round"/><polygon points="138.8,120.1 144.2,121.3 139.2,144.7 133.8,143.6" fill="url(#g)" stroke="#0b0c0e" stroke-width=".6"/><line x1="131.8" y1="119.7" x2="127.2" y2="141.2" stroke="#4a525c" stroke-width="3" stroke-linecap="round"/><line x1="66.3" y1="110.3" x2="63.6" y2="123.0" stroke="#4a525c" stroke-width="3" stroke-linecap="round"/><line x1="86.5" y1="121.3" x2="106.0" y2="125.4" stroke="#121417" stroke-width="4" stroke-linecap="round"/><text x="94.4" y="132.1" transform="rotate(12 94.4 132.1)" text-anchor="middle" font-family="Segoe UI,Arial" font-weight="700" font-size="5.5" fill="#6f7881" letter-spacing="1">Q-SYS</text><circle cx="146.1" cy="119.6" r="2" fill="#9aa4ae" stroke="#2b3036" stroke-width=".6"/><line x1="57.1" y1="124.7" x2="47.1" y2="138.7" stroke="#8a939d" stroke-width="1.4" stroke-dasharray="3 2"/><line x1="53.1" y1="127.7" x2="142.3" y2="150.0" stroke="url(#frm)" stroke-width="4" stroke-linecap="round"/><g fill="none" stroke="#c8a84b" stroke-linecap="round" opacity=".55"><path d="M166 52 q14 26 0 62" stroke-width="1.6"/><path d="M178 46 q22 34 2 78" stroke-width="1.3" opacity=".6"/></g></svg>