<svg xmlns="http://www.w3.org/2000/svg" viewBox="0 0 240 160" width="480" height="320"><defs><pattern id="g" width="4" height="4" patternUnits="userSpaceOnUse"><rect width="4" height="4" fill="#0e1013"/><circle cx="2" cy="2" r=".9" fill="#3a414a"/></pattern><linearGradient id="sh" x1="0" y1="0" x2="0" y2="1"><stop offset="0" stop-color="#fff" stop-opacity=".14"/><stop offset="1" stop-color="#fff" stop-opacity="0"/></linearGradient></defs><ellipse cx="120" cy="140" rx="60" ry="6" fill="#000" opacity=".16"/><rect x="66" y="30" width="108" height="104" rx="3" fill="#16181b" stroke="#4a525c"/><rect x="66" y="30" width="108" height="104" rx="3" fill="#9fc6e8" opacity=".12"/><rect x="76" y="38.0" width="88" height="8" rx="1" fill="#2a2f36" stroke="#3a414a" stroke-width=".5"/><rect x="76" y="48.5" width="88" height="8" rx="1" fill="#2a2f36" stroke="#3a414a" stroke-width=".5"/><rect x="76" y="59.0" width="88" height="8" rx="1" fill="#2a2f36" stroke="#3a414a" stroke-width=".5"/><rect x="76" y="69.5" width="88" height="8" rx="1" fill="#2a2f36" stroke="#3a414a" stroke-width=".5"/><rect x="76" y="80.0" width="88" height="8" rx="1" fill="#2a2f36" stroke="#3a414a" stroke-width=".5"/><rect x="76" y="90.5" width="88" height="8" rx="1" fill="#2a2f36" stroke="#3a414a" stroke-width=".5"/><rect x="76" y="101.0" width="88" height="8" rx="1" fill="#2a2f36" stroke="#3a414a" stroke-width=".5"/><rect x="76" y="111.5" width="88" height="8" rx="1" fill="#2a2f36" stroke="#3a414a" stroke-width=".5"/><rect x="76" y="122.0" width="88" height="8" rx="1" fill="#2a2f36" stroke="#3a414a" stroke-width=".5"/><line x1="70" y1="34" x2="80" y2="120" stroke="#fff" stroke-opacity=".18" stroke-width="3"/></svg>