<svg xmlns="http://www.w3.org/2000/svg" viewBox="0 0 400 400">
  <defs>
    <linearGradient id="top" x1="0" x2="0" y1="0" y2="1"><stop offset="0" stop-color="#4b5058"/><stop offset="1" stop-color="#2a2d32"/></linearGradient>
    <linearGradient id="front" x1="0" x2="0" y1="0" y2="1"><stop offset="0" stop-color="#2c3036"/><stop offset="1" stop-color="#141619"/></linearGradient>
    <pattern id="vent" width="6" height="6" patternUnits="userSpaceOnUse"><rect width="6" height="6" fill="#1b1d21"/><rect x="1" y="1" width="4" height="4" rx="1" fill="#08090a"/></pattern>
    <radialGradient id="sh"><stop offset="0" stop-color="#000" stop-opacity=".35"/><stop offset="1" stop-color="#000" stop-opacity="0"/></radialGradient>
  </defs>
  <ellipse cx="200" cy="258" rx="190" ry="10" fill="url(#sh)"/>
  <path d="M28 168 L58 140 L392 140 L362 168 Z" fill="url(#top)"/>
  <path d="M362 168 L392 140 L392 214 L362 246 Z" fill="#1d2024"/>
  <rect x="8" y="168" width="354" height="78" rx="4" fill="url(#front)" stroke="#454a52"/>
  <!-- rack ears -->
  <rect x="8" y="168" width="18" height="78" rx="3" fill="#24272c" stroke="#454a52"/>
  <circle cx="17" cy="182" r="3.5" fill="#0b0c0e"/><circle cx="17" cy="232" r="3.5" fill="#0b0c0e"/>
  <!-- logo -->
  <text x="40" y="214" font-family="Segoe UI, Arial, sans-serif" font-size="18" font-weight="700" fill="#e9edf1">Q-SYS</text>
  <text x="40" y="230" font-family="Segoe UI, Arial, sans-serif" font-size="9" fill="#9aa2ab" letter-spacing="1.2">CORE 8 FLEX</text>
  <!-- LCD -->
  <rect x="122" y="186" width="70" height="42" rx="3" fill="#0a1a2a" stroke="#3a4048"/>
  <rect x="126" y="190" width="62" height="34" rx="2" fill="#0f3d5e"/>
  <g fill="#7fd0ff" opacity=".85"><rect x="130" y="195" width="40" height="3"/><rect x="130" y="202" width="30" height="3"/><rect x="130" y="209" width="48" height="3"/><rect x="130" y="216" width="22" height="3"/></g>
  <!-- status LEDs -->
  <g><circle cx="208" cy="196" r="3" fill="#3ae374"/><circle cx="208" cy="208" r="3" fill="#3ae374"/><circle cx="208" cy="220" r="3" fill="#ffb84d"/></g>
  <!-- vent field -->
  <rect x="224" y="180" width="128" height="54" rx="3" fill="url(#vent)"/>
</svg>
